<svg width="128" height="128" viewBox="0 0 128 128" fill="none" xmlns="http://www.w3.org/2000/svg">
<path d="M20.2402 47.26C20.2402 47.26 14.7602 50.71 14.1302 54.15C13.5002 57.6 14.7602 61.67 16.4802 64.33C18.2002 66.99 20.2402 69.19 22.7502 70.13C25.2602 71.07 27.4502 70.91 27.4502 70.91C27.4502 70.91 33.2502 77.49 43.5802 86.42C53.9102 95.35 67.0802 106 81.9602 114.3C96.8402 122.6 102.17 124.64 106.24 124.64C110.31 124.64 110.16 118.53 109.69 116.65C109.22 114.77 83.0602 85.64 83.0602 85.64L20.2402 47.26Z" fill="#FF8E00"/>
<path d="M31.2102 62.46L27.2902 58.23C27.2902 58.23 23.2202 50.55 19.4602 50.55C15.7002 50.55 14.1302 54.15 14.1302 54.15C14.1302 54.15 13.6602 50.23 18.3602 42.72C23.0602 35.21 29.0102 29.25 34.3402 25.49C39.6702 21.73 46.2402 17.34 50.6302 14.84C55.0202 12.34 64.5702 9.20003 70.0602 7.32003C75.5402 5.44003 87.4502 3.09003 92.9302 4.19003C98.4102 5.29003 100.76 9.05003 100.76 12.96C100.76 16.87 99.8202 19.54 99.0402 20.32C98.2602 21.1 93.0902 25.49 93.0902 25.49L31.2102 62.46Z" fill="#F5B03E"/>
<path d="M42.1999 45.95L32.4899 52.22L28.4199 60.21C28.4199 60.21 29.1999 62.87 30.4599 64.28C31.7099 65.69 42.1999 75.74 49.7099 82.16C55.5699 87.17 68.0599 97.8 68.0599 97.8C68.0599 97.8 68.5699 103.14 69.1599 106.89C69.6299 109.87 69.6599 114.84 72.7999 114.7C76.7599 114.52 74.4799 106.5 77.6199 106.58C83.8899 106.74 77.6699 123.7 84.4099 123.61C89.7799 123.54 86.3699 114.27 89.0599 112.69C90.5199 111.83 93.4199 115.48 98.1499 117.55C103.99 120.1 107.55 122.03 109.43 121.15C113.4 119.29 105.03 75.92 104.09 68.56C103.15 61.2 98.4699 23.4 98.1499 22.15C97.8299 20.9 91.4099 20.74 91.4099 20.74L81.5399 24.19L67.4399 26.07L50.8399 35.94L42.1999 45.95Z" fill="#FFCC8A"/>
<path d="M39.7499 44.3799C36.6699 46.1199 32.6999 47.0899 29.3499 52.6099C26.5599 57.2099 25.8199 61.9199 27.8099 62.2799C29.7999 62.6399 31.3099 55.6999 33.9599 53.0599C38.2099 48.8099 41.6499 48.3599 44.0899 46.0999C46.5299 43.8399 49.1999 37.6999 59.3699 32.2699C71.2199 25.9399 78.2999 27.6099 81.0699 26.5699C84.6899 25.2099 85.6699 22.9899 90.1999 22.0499C94.9899 21.0599 98.3199 22.9699 98.3199 22.9699C98.3199 22.9699 99.4099 20.4399 97.9599 19.2599C96.5099 18.0799 93.8399 17.1599 89.3799 18.0699C84.4999 19.0599 80.8799 22.3199 79.8899 22.4099C78.8999 22.4999 68.7699 21.9599 56.7399 28.8299C44.7099 35.6999 42.4599 42.8399 39.7499 44.3799Z" fill="#CB6C22"/>
<path d="M53.5798 55.32L37.3998 58.85C37.3998 58.85 37.1498 61.92 37.3098 62.83C37.8498 65.9 41.9198 70.79 44.3598 71.6C46.7998 72.41 51.7698 72.5 53.3998 71.78C55.0298 71.06 59.9098 67.53 60.5398 65.63C61.1698 63.73 60.9998 55.78 59.7398 54.51C58.4798 53.25 53.5798 55.32 53.5798 55.32Z" fill="#DB0D27"/>
<path d="M42.1902 50.2599C40.4602 51.5999 37.1302 56.1399 37.4002 59.3899C37.6702 62.6499 43.2802 68.3399 44.8102 68.8799C46.3402 69.4199 51.3202 69.5099 52.5902 69.1499C53.8602 68.7899 58.7402 65.1699 59.4602 63.9099C60.1802 62.6399 60.8202 55.5899 59.6402 54.3299C58.4602 53.0699 54.9402 49.3599 52.1402 48.5399C49.3302 47.7299 43.8202 48.9899 42.1902 50.2599Z" fill="#ED6D30"/>
<path d="M83.5998 65.45C83.5998 65.45 69.2798 64.42 69.0998 65.32C68.9198 66.22 68.5898 69.7 69.4998 72.5C70.1398 74.49 71.6698 77.93 76.3698 79.91C81.0698 81.89 85.5898 79.73 86.7698 78.82C88.9798 77.12 90.3898 75.02 90.7498 73.76C91.1098 72.5 83.5998 65.45 83.5998 65.45Z" fill="#DB0D27"/>
<path d="M76.6399 57.94C74.4299 58.74 69.1399 62.01 69.0399 65.63C68.9499 69.25 71.5699 73.68 72.9299 74.67C74.2899 75.66 78.8099 78.29 82.1499 78.11C85.4999 77.93 90.1099 75.22 90.7399 73.77C91.3699 72.32 91.6399 68.07 91.3699 65.9C91.0999 63.73 86.3999 58.85 84.0499 58.12C81.6999 57.4 78.6299 57.22 76.6399 57.94Z" fill="#ED6D30"/>
<path d="M76.0999 91.7599C76.0999 91.7599 62.9899 88.1399 62.8099 88.4099C62.6299 88.6799 60.8199 90.9399 61.2699 92.0299C61.7199 93.1199 66.3299 96.8199 68.2299 98.4499C70.1299 100.08 75.8699 103.45 76.5499 103.33C78.1799 103.06 79.4399 100.44 79.4399 100.44L76.0999 91.7599Z" fill="#DB0D27"/>
<path d="M77.2698 86.24C74.0698 83.89 69.3998 84.07 66.8698 85.25C64.3398 86.43 62.7998 87.96 62.5298 89.14C62.2598 90.32 64.3498 92.59 65.1698 93.22C65.9798 93.85 68.4398 95.71 68.4398 95.71C68.4398 95.71 72.0898 98.57 73.4398 99.61C75.3198 101.06 77.6798 101.88 78.3098 101.97C78.9398 102.06 81.8798 98.26 81.3398 93.19C81.0598 90.6 79.9598 88.22 77.2698 86.24Z" fill="#ED6D30"/>
<path d="M100.06 79.0101L95.1801 78.8301C95.1801 78.8301 93.1902 82.5401 94.5502 86.7001C95.6602 90.1001 97.9902 92.1301 101.87 93.2101C105.76 94.3001 107.93 93.9101 107.93 93.9101L107.99 91.1801L100.06 79.0101Z" fill="#DB0D27"/>
<path d="M104.76 72.7701C104.76 72.7701 98.7399 72.0601 95.6299 77.6501C93.2499 81.9401 94.9099 85.5201 96.8099 87.6001C98.7099 89.6801 101.6 91.0401 103.77 91.2201C105.94 91.4001 108.04 91.2301 108.04 91.2301C108.04 91.2301 107.2 85.6801 106.38 81.0401C105.88 78.2601 104.76 72.7701 104.76 72.7701Z" fill="#ED6D30"/>
<path d="M87.22 33.6201C87.22 33.6201 75.56 33.9801 74.83 35.1601C74.1 36.3401 74.11 41.5801 74.47 43.6601C74.83 45.7401 78 50.8001 84.33 50.8901C90.66 50.9801 92.89 49.4001 95.35 44.6201C97.81 39.8401 95.25 34.4901 95.25 34.4901L87.22 33.6201Z" fill="#DB0D27"/>
<path d="M87.3102 28.28C84.7802 27.79 81.2502 28.82 79.5302 30C77.8102 31.18 75.0102 33.62 74.8302 35.43C74.6502 37.24 76.2802 42.48 76.9102 43.48C77.5402 44.47 80.1602 47.16 80.9802 47.55C82.8802 48.45 88.1202 48 89.6602 47.46C91.2002 46.92 95.4502 43.48 95.9002 41.67C96.3502 39.86 96.8902 36.79 94.8102 33.08C92.7302 29.37 89.6602 28.74 87.3102 28.28Z" fill="#ED6D30"/>
<path d="M103.78 104.17L93.3701 103.72C93.3701 103.72 91.9701 106.53 92.3901 108.99C92.7301 111.03 94.4201 113.81 97.4501 114.98C99.1701 115.64 103.67 115.21 104.77 114.46C106.99 112.94 107.7 110.18 107.63 108.76C107.6 108.02 103.78 104.17 103.78 104.17Z" fill="#DB0D27"/>
<path d="M101.51 99.7499C98.8098 99.3399 95.6998 100.8 94.3598 102.19C93.0198 103.58 92.7498 105.32 93.2598 107.42C94.1898 111.26 96.6498 112.35 97.7898 112.94C99.4798 113.81 104.12 113.64 105.58 112.53C107.03 111.43 108.13 109.55 107.79 106.66C107.44 103.76 106.16 100.45 101.51 99.7499Z" fill="#ED6D30"/>
<path d="M36 31.0299C36.09 33.1899 39.87 32.8199 41.36 32.6699C42.55 32.5499 45.53 32.2999 45.53 30.3599C45.53 28.4199 42.93 28.4299 40.99 28.4999C39.12 28.5699 35.92 29.3199 36 31.0299ZM56.31 18.3099C56.31 19.7299 57.87 19.8699 58.84 19.9499C59.81 20.0199 61.07 19.6499 61.15 18.5399C61.22 17.4199 60.26 16.7499 58.84 16.6799C57.35 16.5899 56.31 17.1099 56.31 18.3099ZM65.61 21.7299C67.04 23.2799 69.18 21.2099 69.93 20.2399C70.67 19.2699 70.82 17.7799 70 17.0399C69.18 16.2999 67.62 17.1099 66.58 18.0799C65.54 19.0499 64.72 20.7599 65.61 21.7299ZM81.76 13.8399C83.5 15.8099 86.37 12.4999 87.56 11.3799C88.75 10.2599 89.72 8.69994 88.6 7.43994C87.48 6.17994 84.95 7.95994 83.99 9.07994C83.02 10.1899 80.64 12.5799 81.76 13.8399ZM26.92 47.2499C28.61 47.6499 29.16 45.6499 29.45 44.1199C29.75 42.5599 29.75 41.0699 28.48 40.8499C27.04 40.5999 26.25 42.0399 26.02 43.4499C25.83 44.7199 25.36 46.8799 26.92 47.2499Z" fill="#FCC12B"/>
</svg>
